<svg width="112" height="16" viewBox="0 0 112 16" fill="none" xmlns="http://www.w3.org/2000/svg">
<path d="M7.99882 0C7.47543 0 7.0102 0.291135 6.79697 0.776359L5.03296 4.50288L1.13663 5.08515C0.400008 5.2016 -0.0846104 5.88092 0.0123133 6.59905C0.0510827 6.87078 0.186776 7.12309 0.380623 7.33659L3.24956 10.2868L2.5711 14.4403C2.45479 15.1584 2.93941 15.8571 3.67603 15.9736C3.9668 16.0124 4.27695 15.9736 4.52895 15.8183L7.99882 13.9162L11.4687 15.8377C12.1084 16.1871 12.9225 15.9542 13.2715 15.3137C13.4072 15.042 13.4653 14.7508 13.4265 14.4597L12.7481 10.3062L15.617 7.37541C16.1404 6.85137 16.121 5.99737 15.5976 5.49274C15.4038 5.29865 15.1518 5.16279 14.861 5.12397L10.9647 4.50288L9.20067 0.75695C8.98744 0.291134 8.52221 0 7.99882 0Z" fill="#FFA63F"/>
<path d="M31.9988 0C31.4754 0 31.0102 0.291135 30.797 0.776359L29.033 4.50288L25.1366 5.08515C24.4 5.2016 23.9154 5.88092 24.0123 6.59905C24.0511 6.87078 24.1868 7.12309 24.3806 7.33659L27.2496 10.2868L26.5711 14.4403C26.4548 15.1584 26.9394 15.8571 27.676 15.9736C27.9668 16.0124 28.277 15.9736 28.529 15.8183L31.9988 13.9162L35.4687 15.8377C36.1084 16.1871 36.9225 15.9542 37.2715 15.3137C37.4072 15.042 37.4653 14.7508 37.4265 14.4597L36.7481 10.3062L39.617 7.37541C40.1404 6.85137 40.121 5.99737 39.5976 5.49274C39.4038 5.29865 39.1518 5.16279 38.861 5.12397L34.9647 4.50288L33.2007 0.75695C32.9874 0.291134 32.5222 0 31.9988 0Z" fill="#FFA63F"/>
<path d="M55.9988 0C55.4754 0 55.0102 0.291135 54.797 0.776359L53.033 4.50288L49.1366 5.08515C48.4 5.2016 47.9154 5.88092 48.0123 6.59905C48.0511 6.87078 48.1868 7.12309 48.3806 7.33659L51.2496 10.2868L50.5711 14.4403C50.4548 15.1584 50.9394 15.8571 51.676 15.9736C51.9668 16.0124 52.277 15.9736 52.529 15.8183L55.9988 13.9162L59.4687 15.8377C60.1084 16.1871 60.9225 15.9542 61.2715 15.3137C61.4072 15.042 61.4653 14.7508 61.4265 14.4597L60.7481 10.3062L63.617 7.37541C64.1404 6.85137 64.121 5.99737 63.5976 5.49274C63.4038 5.29865 63.1518 5.16279 62.861 5.12397L58.9647 4.50288L57.2007 0.75695C56.9874 0.291134 56.5222 0 55.9988 0Z" fill="#FFA63F"/>
<path d="M79.9988 0C79.4754 0 79.0102 0.291135 78.797 0.776359L77.033 4.50288L73.1366 5.08515C72.4 5.2016 71.9154 5.88092 72.0123 6.59905C72.0511 6.87078 72.1868 7.12309 72.3806 7.33659L75.2496 10.2868L74.5711 14.4403C74.4548 15.1584 74.9394 15.8571 75.676 15.9736C75.9668 16.0124 76.277 15.9736 76.529 15.8183L79.9988 13.9162L83.4687 15.8377C84.1084 16.1871 84.9225 15.9542 85.2715 15.3137C85.4072 15.042 85.4653 14.7508 85.4265 14.4597L84.7481 10.3062L87.617 7.37541C88.1404 6.85137 88.121 5.99737 87.5976 5.49274C87.4038 5.29865 87.1518 5.16279 86.861 5.12397L82.9647 4.50288L81.2007 0.75695C80.9874 0.291134 80.5222 0 79.9988 0Z" fill="#FFA63F"/>
<path d="M103.999 0C103.475 0 103.01 0.291135 102.797 0.776359L101.033 4.50288L97.1366 5.08515C96.4 5.2016 95.9154 5.88092 96.0123 6.59905C96.0511 6.87078 96.1868 7.12309 96.3806 7.33659L99.2496 10.2868L98.5711 14.4403C98.4548 15.1584 98.9394 15.8571 99.676 15.9736C99.9668 16.0124 100.277 15.9736 100.529 15.8183L103.999 13.9162L107.469 15.8377C108.108 16.1871 108.923 15.9542 109.271 15.3137C109.407 15.042 109.465 14.7508 109.427 14.4597L108.748 10.3062L111.617 7.37541C112.14 6.85137 112.121 5.99737 111.598 5.49274C111.404 5.29865 111.152 5.16279 110.861 5.12397L106.965 4.50288L105.201 0.75695C104.987 0.291134 104.522 0 103.999 0Z" fill="#FFA63F"/>
</svg>
